<svg xmlns="http://www.w3.org/2000/svg" width="200" height="186.353" viewBox="0 0 200 186.353"><path d="M3001.647,3056.184v37.971h-38.87a3.175,3.175,0,0,0-3.175,3.175v91.192a3.176,3.176,0,0,0,3.175,3.176h31.116v50.84h131.418V3191.7h31.116a3.175,3.175,0,0,0,3.175-3.175v-91.192a3.175,3.175,0,0,0-3.146-3.175h-38.87v-37.971Zm12.7,12.7h90.542v25.271h-90.542Zm125.887,40.174a6.033,6.033,0,1,1-5.769,6.153A6.031,6.031,0,0,1,3140.234,3109.058Zm-133.624,50.377h106.017v70.4H3006.61Zm16.514,11.227v9.525h72.986v-9.525Zm0,18.8v9.525h72.986v-9.525Zm0,18.8v9.525h72.986v-9.525Z" transform="translate(-2959.603 -3056.184)"/></svg>